<svg width="130" height="40" viewBox="0 0 130 40" fill="none" xmlns="http://www.w3.org/2000/svg">
  <!-- Green squiggle/tilde accent above the R -->
  <path d="M8 5.5C10.5 2.5 14 2.5 16.5 5C19 7.5 22.5 7.5 25 5" stroke="#5EA500" stroke-width="3" stroke-linecap="round" fill="none"/>
  <!-- R -->
  <path d="M5 12.5H15.5C20.5 12.5 24 15.5 24 19.5C24 22.5 22.5 24.8 19.5 25.8L27 35H21L14 26H11V35H5V12.5ZM11 21.5H15C17.5 21.5 19 20 19 18.2C19 16.4 17.5 15.2 15 15.2H11V21.5Z" fill="white"/>
  <!-- e -->
  <path d="M33 23.5C33 18 37 14 42 14C47 14 50.5 17.8 50.5 23V24.5H39C39.5 27.5 41.5 29 44 29C46 29 47.5 28.2 48.5 26.8L52 29C50.2 31.8 47.5 33.5 44 33.5C38 33.5 33 29.5 33 23.5ZM39 21.5H49C48.7 19 46.7 17 44 17C41.3 17 39.3 19 39 21.5Z" fill="white"/>
  <!-- v -->
  <path d="M53 14.5H59L65 28.5L71 14.5H77L67 35H62L53 14.5Z" fill="white"/>
  <!-- u -->
  <path d="M79 14.5H85V27C85 30 86.5 31.5 89 31.5C91.5 31.5 93 30 93 27V14.5H99V28C99 33 95.5 36.5 89 36.5C82.5 36.5 79 33 79 28V14.5Z" fill="white"/>
  <!-- n -->
  <path d="M103 14.5H109V17.5C110.5 15.3 113 14 116 14C121 14 123.5 17 123.5 22V35H117.5V23C117.5 20 116 18.5 113.5 18.5C111 18.5 109.5 20.3 109 22V35H103V14.5Z" fill="white"/>
</svg>
